<svg xmlns="http://www.w3.org/2000/svg" style="display:none">
  <symbol id="home" viewBox="0 0 24 24"><path d="M3 11.5 12 4l9 7.5"/><path d="M5.5 10.5V20h13v-9.5"/><path d="M9.5 20v-6h5v6"/></symbol>
  <symbol id="user" viewBox="0 0 24 24"><circle cx="12" cy="8" r="4"/><path d="M4.5 20c1.5-4 4-6 7.5-6s6 2 7.5 6"/></symbol>
  <symbol id="research" viewBox="0 0 24 24"><path d="M10 3v6l-5 8a3 3 0 0 0 2.6 4.5h8.8A3 3 0 0 0 19 17l-5-8V3"/><path d="M8 3h8"/><path d="M7.5 16h9"/></symbol>
  <symbol id="file" viewBox="0 0 24 24"><path d="M6 3h8l4 4v14H6z"/><path d="M14 3v5h5"/><path d="M9 13h6M9 17h6"/></symbol>
  <symbol id="screen" viewBox="0 0 24 24"><rect x="4" y="5" width="16" height="11" rx="1.5"/><path d="M9 20h6M12 16v4"/></symbol>
  <symbol id="image" viewBox="0 0 24 24"><rect x="4" y="5" width="16" height="14" rx="1.5"/><circle cx="9" cy="10" r="1.5"/><path d="m5 18 5.5-5.5 3.5 3.5 2-2 3 4"/></symbol>
  <symbol id="grid" viewBox="0 0 24 24"><rect x="4" y="4" width="6" height="6"/><rect x="14" y="4" width="6" height="6"/><rect x="4" y="14" width="6" height="6"/><rect x="14" y="14" width="6" height="6"/></symbol>
  <symbol id="mail" viewBox="0 0 24 24"><rect x="4" y="6" width="16" height="12" rx="1.5"/><path d="m5 8 7 5 7-5"/></symbol>
</svg>
